<svg width="486" height="120" viewBox="0 0 486 120" fill="none" xmlns="http://www.w3.org/2000/svg">
<path d="M1.13084e-05 27.6619C1.26675e-05 19.889 8.47972 15.0878 15.145 19.087L40.2899 34.174C46.314 37.7884 50 44.2986 50 51.3238V68.6762C50 75.7015 46.314 82.2116 40.2899 85.8261L15.1449 100.913C8.47969 104.912 -1.359e-06 100.111 0 92.3381L1.13084e-05 27.6619Z" fill="#FA776C"/>
<path d="M103.855 1.74656e-05C109.151 1.85911e-05 111.85 6.362 108.169 10.1701L94.8962 23.9004C91.1279 27.7987 85.9383 30 80.5165 30H55.5397C51.9148 30 48.3581 29.0148 45.2498 27.1498L18.5749 11.1449C13.3568 8.01406 15.5766 -1.2931e-06 21.6619 0L103.855 1.74656e-05Z" fill="#624CF5"/>
<path d="M103.855 120C109.151 120 111.85 113.638 108.169 109.83L94.8962 96.0995C91.1279 92.2013 85.9384 90 80.5165 90H55.5397C51.9148 90 48.3581 90.9851 45.2498 92.8501L18.5749 108.855C13.3568 111.986 15.5766 120 21.6619 120H103.855Z" fill="#624CF5"/>
<path d="M86 60C86 51.7158 79.2843 45 71 45C62.7157 45 56 51.7158 56 60C56 68.2843 62.7157 75 71 75C79.2843 75 86 68.2843 86 60Z" fill="#FA776C"/>
<path d="M180.72 45.248C179.056 42.1973 176.768 39.8747 173.856 38.28C170.944 36.6853 167.547 35.888 163.664 35.888C159.365 35.888 155.552 36.8587 152.224 38.8C148.896 40.7413 146.296 43.5147 144.424 47.12C142.552 50.7253 141.616 54.8853 141.616 59.6C141.616 64.4533 142.552 68.6827 144.424 72.288C146.365 75.8933 149.035 78.6667 152.432 80.608C155.829 82.5493 159.781 83.52 164.288 83.52C169.835 83.52 174.376 82.064 177.912 79.152C181.448 76.1707 183.771 72.0453 184.88 66.776H159.92V55.648H199.232V68.336C198.261 73.3973 196.181 78.0773 192.992 82.376C189.803 86.6747 185.677 90.1413 180.616 92.776C175.624 95.3413 170.008 96.624 163.768 96.624C156.765 96.624 150.421 95.064 144.736 91.944C139.12 88.7547 134.683 84.352 131.424 78.736C128.235 73.12 126.64 66.7413 126.64 59.6C126.64 52.4587 128.235 46.08 131.424 40.464C134.683 34.7787 139.12 30.376 144.736 27.256C150.421 24.0667 156.731 22.472 163.664 22.472C171.845 22.472 178.952 24.4827 184.984 28.504C191.016 32.456 195.176 38.0373 197.464 45.248H180.72Z" fill="black"/>
<path d="M206.26 66.984C206.26 61.16 207.404 55.9947 209.692 51.488C212.049 46.9813 215.204 43.5147 219.156 41.088C223.177 38.6613 227.649 37.448 232.572 37.448C236.871 37.448 240.615 38.3147 243.804 40.048C247.063 41.7813 249.663 43.9653 251.604 46.6V38.384H266.268V96H251.604V87.576C249.732 90.28 247.132 92.5333 243.804 94.336C240.545 96.0693 236.767 96.936 232.468 96.936C227.615 96.936 223.177 95.688 219.156 93.192C215.204 90.696 212.049 87.1947 209.692 82.688C207.404 78.112 206.26 72.8773 206.26 66.984ZM251.604 67.192C251.604 63.656 250.911 60.64 249.524 58.144C248.137 55.5787 246.265 53.6373 243.908 52.32C241.551 50.9333 239.02 50.24 236.316 50.24C233.612 50.24 231.116 50.8987 228.828 52.216C226.54 53.5333 224.668 55.4747 223.212 58.04C221.825 60.536 221.132 63.5173 221.132 66.984C221.132 70.4507 221.825 73.5013 223.212 76.136C224.668 78.7013 226.54 80.6773 228.828 82.064C231.185 83.4507 233.681 84.144 236.316 84.144C239.02 84.144 241.551 83.4853 243.908 82.168C246.265 80.7813 248.137 78.84 249.524 76.344C250.911 73.7787 251.604 70.728 251.604 67.192Z" fill="black"/>
<path d="M297.441 50.344V78.216C297.441 80.1573 297.891 81.5787 298.792 82.48C299.763 83.312 301.358 83.728 303.577 83.728H310.337V96H301.184C288.912 96 282.777 90.0373 282.777 78.112V50.344H275.913V38.384H282.777V24.136H297.441V38.384H310.337V50.344H297.441Z" fill="black"/>
<path d="M353.257 37.552C357.625 37.552 361.507 38.5227 364.905 40.464C368.302 42.336 370.937 45.144 372.809 48.888C374.75 52.5627 375.721 57 375.721 62.2V96H361.161V64.176C361.161 59.6 360.017 56.0987 357.729 53.672C355.441 51.176 352.321 49.928 348.369 49.928C344.347 49.928 341.158 51.176 338.801 53.672C336.513 56.0987 335.369 59.6 335.369 64.176V96H320.809V19.04H335.369V45.56C337.241 43.064 339.737 41.1227 342.857 39.736C345.977 38.28 349.443 37.552 353.257 37.552Z" fill="black"/>
<path d="M443.127 65.944C443.127 68.024 442.988 69.896 442.711 71.56H400.591C400.937 75.72 402.393 78.9787 404.959 81.336C407.524 83.6933 410.679 84.872 414.423 84.872C419.831 84.872 423.679 82.5493 425.967 77.904H441.671C440.007 83.4507 436.817 88.0267 432.103 91.632C427.388 95.168 421.599 96.936 414.735 96.936C409.188 96.936 404.196 95.7227 399.759 93.296C395.391 90.8 391.959 87.2987 389.463 82.792C387.036 78.2853 385.823 73.0853 385.823 67.192C385.823 61.2293 387.036 55.9947 389.463 51.488C391.889 46.9813 395.287 43.5147 399.655 41.088C404.023 38.6613 409.049 37.448 414.735 37.448C420.212 37.448 425.1 38.6267 429.399 40.984C433.767 43.3413 437.129 46.704 439.487 51.072C441.913 55.3707 443.127 60.328 443.127 65.944ZM428.047 61.784C427.977 58.04 426.625 55.0587 423.991 52.84C421.356 50.552 418.132 49.408 414.319 49.408C410.713 49.408 407.663 50.5173 405.167 52.736C402.74 54.8853 401.249 57.9013 400.695 61.784H428.047Z" fill="black"/>
<path d="M468.314 47.328C470.186 44.2773 472.613 41.8853 475.594 40.152C478.645 38.4187 482.111 37.552 485.994 37.552V52.84H482.146C477.57 52.84 474.103 53.9147 471.746 56.064C469.458 58.2133 468.314 61.9573 468.314 67.296V96H453.754V38.384H468.314V47.328Z" fill="black"/>
</svg>
