<svg width="110" height="120" viewBox="0 0 110 120" fill="none" xmlns="http://www.w3.org/2000/svg">
<path d="M1.13084e-05 27.6619C1.26675e-05 19.889 8.47972 15.0878 15.145 19.087L40.2899 34.174C46.314 37.7884 50 44.2986 50 51.3238V68.6762C50 75.7015 46.314 82.2116 40.2899 85.8261L15.1449 100.913C8.47969 104.912 -1.359e-06 100.111 0 92.3381L1.13084e-05 27.6619Z" fill="#FA776C"/>
<path d="M103.855 1.74656e-05C109.151 1.85911e-05 111.85 6.362 108.169 10.1701L94.8962 23.9004C91.1279 27.7987 85.9383 30 80.5165 30H55.5397C51.9148 30 48.3581 29.0148 45.2498 27.1498L18.5749 11.1449C13.3568 8.01406 15.5766 -1.2931e-06 21.6619 0L103.855 1.74656e-05Z" fill="#624CF5"/>
<path d="M103.855 120C109.151 120 111.85 113.638 108.169 109.83L94.8962 96.0995C91.1279 92.2013 85.9384 90 80.5165 90H55.5397C51.9148 90 48.3581 90.9851 45.2498 92.8501L18.5749 108.855C13.3568 111.986 15.5766 120 21.6619 120H103.855Z" fill="#624CF5"/>
<path d="M86 60C86 51.7158 79.2843 45 71 45C62.7157 45 56 51.7158 56 60C56 68.2843 62.7157 75 71 75C79.2843 75 86 68.2843 86 60Z" fill="#FA776C"/>
</svg>
